<?xml version="1.0" standalone="no"?><!DOCTYPE svg PUBLIC "-//W3C//DTD SVG 1.1//EN" "http://www.w3.org/Graphics/SVG/1.1/DTD/svg11.dtd"><svg t="1542683848998" class="icon" style="" viewBox="0 0 1024 1024" version="1.1" xmlns="http://www.w3.org/2000/svg" p-id="1799" xmlns:xlink="http://www.w3.org/1999/xlink" width="200" height="200"><defs><style type="text/css"></style></defs><path d="M600.992529 378.480419c0 158.552608-127.865007 286.417615-286.417614 286.417615S25.6 537.033027 25.6 378.480419 153.465007 92.062805 312.017615 92.062805c158.552608 0 288.974915 127.865007 288.974914 286.417614z" fill="#F4E963" p-id="1800"></path><path d="M552.403827 378.480419c0 132.979607-107.406605 237.828912-240.386212 237.828912S74.188702 511.460026 74.188702 378.480419c0-117.635806 86.948204-217.370511 199.469411-235.271612 12.786501-2.5573 25.573001-2.5573 38.359502-2.5573 132.979607 0 240.386212 107.406605 240.386212 237.828912z" fill="#F0D339" p-id="1801"></path><path d="M419.42422 432.183722c0-10.229201-2.5573-20.458401-5.1146-28.130301-2.5573-7.6719-7.6719-15.343801-15.343801-20.458401l-23.015701-15.343801c-10.229201-5.1146-20.458401-7.6719-30.687602-12.786501h-2.5573v-86.948204c7.6719 0 15.343801 0 23.015701 2.5573 10.229201 2.5573 20.458401 5.1146 28.130302 7.6719 5.1146-10.229201 7.6719-20.458401 10.2292-30.687601-10.229201-2.5573-20.458401-5.1146-33.244901-7.671901-10.229201-2.5573-20.458401-2.5573-28.130302-2.5573V181.568309h-53.703303v58.817903c-23.015701 2.5573-38.359502 10.229201-51.146002 23.015701-15.343801 12.786501-23.015701 28.130301-23.015701 48.588703 0 10.229201 2.5573 17.901101 5.1146 25.573001 2.5573 7.6719 7.6719 12.786501 12.786501 17.901101 5.1146 5.1146 12.786501 10.229201 20.458401 12.786501 7.6719 5.1146 17.901101 7.6719 25.573001 10.2292l10.2292 2.5573v99.734706c-15.343801 0-28.130301 0-38.359502-2.557301-10.229201-2.5573-23.015701-5.1146-33.244901-7.6719l-7.671901 15.343801c-2.5573 5.1146-2.5573 10.229201-5.1146 17.901101 7.6719 2.5573 12.786501 2.5573 20.458401 5.1146s12.786501 2.5573 20.458401 2.5573c7.6719 0 12.786501 2.5573 23.015701 2.5573h23.015702v61.375203h53.703302V511.460026c23.015701-5.1146 40.916802-12.786501 53.703303-25.573001s20.458401-30.687602 20.458401-53.703303zM281.330013 335.006317c-5.1146-2.5573-10.229201-7.6719-12.786501-12.786501s-2.5573-10.229201-2.5573-15.3438c0-12.786501 5.1146-23.015701 15.343801-28.130302 2.5573-2.5573 5.1146-2.5573 7.6719-2.5573v63.932503c-2.5573-2.5573-5.1146-5.1146-7.6719-5.1146z m66.489803 132.979607c-2.5573 0-5.1146 2.5573-5.1146 2.5573v-71.604404c2.5573 2.5573 5.1146 2.5573 7.671901 5.114601 5.1146 2.5573 10.229201 7.6719 12.7865 12.7865 2.5573 5.1146 5.1146 10.229201 5.1146 17.901101-2.5573 15.343801-7.6719 25.573001-20.458401 33.244902z" fill="#EFB81D" p-id="1802"></path><path d="M286.444613 140.651507S43.501101 168.781809 76.746003 419.397221c0 0-5.1146-217.370511 209.69861-278.745714z" fill="#E2AE16" p-id="1803"></path><path d="M866.951743 1020.362752c35.802202 10.229201 86.948204-2.5573 130.422307-20.458401-12.786501-33.244902-158.552608-450.084823-127.865007-452.642123l-76.719004 7.6719c12.786501 127.865007 43.474102 232.714312 25.573001 363.136619-7.6719 61.375203 15.343801 92.062805 48.588703 102.292005z" fill="#C0986B" p-id="1804"></path><path d="M823.477641 795.320341C818.36304 716.044037 800.46194 639.325033 792.790039 552.376828l76.719004-7.6719c-15.343801 2.5573 15.343801 117.635806 53.703303 230.157012l-99.734705 20.458401z" fill="#221F20" p-id="1805"></path><path d="M823.477641 0s7.6719 335.006317 94.620105 698.142936l-388.70962 51.146002S363.163617 381.037719 468.012923 15.343801L823.477641 0z" fill="#D1D1D3" p-id="1806"></path><path d="M526.830826 23.015701c-15.343801 58.817903-61.375203 278.745714 20.458401 562.606029l-35.802202 12.786501 56.260603 28.130301s0 38.359502 25.573001 115.078506l-61.375203 7.6719S365.720917 381.037719 470.570223 15.343801l56.260603 7.6719z" fill="#FFFFFF" p-id="1807"></path><path d="M790.232739 66.489803c-2.5573-15.343801-15.343801-28.130301-30.687602-30.687601s-30.687602 2.5573-40.916802 15.343801-7.6719 30.687602 0 43.474102 25.573001 20.458401 40.916802 15.343801c23.015701-2.5573 35.802202-23.015701 30.687602-43.474103z" fill="#A4A4AE" p-id="1808"></path><path d="M872.066343 618.866632c2.5573 5.1146 0 10.229201-5.1146 12.7865h-7.6719c-2.5573 0-5.1146-2.5573-5.114601-5.1146-46.031402-132.979607-66.489803-271.073814-66.489803-411.725321 0-5.1146 5.1146-10.229201 10.2292-10.229201s10.229201 5.1146 10.229201 10.229201c-2.5573 135.536907 20.458401 273.631114 63.932503 404.053421z" fill="#FFFFFF" p-id="1809"></path></svg>